<svg width="90" height="90" viewBox="0 0 90 90" fill="none" xmlns="http://www.w3.org/2000/svg">
<rect x="0.75" y="0.75" width="88.0029" height="88.0029" rx="44.0014" stroke="#669BBC" stroke-width="1.5"/>
<path d="M67.0576 46.8368C67.0576 60.2605 58.1761 71.1697 44.7524 71.1697C31.3288 71.1697 22.4473 60.2605 22.4473 46.8368C26.9277 46.8746 31.2857 48.3037 34.9184 50.9265C38.5511 53.5493 41.279 57.2362 42.7247 61.4771V42.7814H32.586C30.9726 42.7814 29.4253 42.1404 28.2845 40.9996C27.1437 39.8588 26.5027 38.3115 26.5027 36.6981V24.5317C26.5027 24.1061 26.6367 23.6913 26.8855 23.346C27.1343 23.0008 27.4855 22.7426 27.8893 22.608C28.293 22.4734 28.7289 22.4693 29.1351 22.5962C29.5413 22.7231 29.8973 22.9746 30.1527 23.315L36.3576 31.426L43.0491 19.2595C43.233 18.975 43.4852 18.741 43.7827 18.5789C44.0802 18.4169 44.4136 18.332 44.7524 18.332C45.0912 18.332 45.4246 18.4169 45.7222 18.5789C46.0197 18.741 46.2719 18.975 46.4557 19.2595L53.1473 31.426L59.3522 23.315C59.6075 22.9746 59.9635 22.7231 60.3698 22.5962C60.776 22.4693 61.2118 22.4734 61.6156 22.608C62.0193 22.7426 62.3705 23.0008 62.6194 23.346C62.8682 23.6913 63.0021 24.1061 63.0021 24.5317V36.6981C63.0021 38.3115 62.3612 39.8588 61.2204 40.9996C60.0795 42.1404 58.5323 42.7814 56.9189 42.7814H46.7802V61.4771C48.2259 57.2362 50.9538 53.5493 54.5865 50.9265C58.2192 48.3037 62.5772 46.8746 67.0576 46.8368Z" fill="#333333"/>
</svg>
